<svg xmlns="http://www.w3.org/2000/svg" width="1280" height="720" viewBox="0 0 1280 720" data-pptx-page-role="content"><rect id="bg" data-pptx-role="background" width="1280" height="720" fill="#F5F9FF"/><g id="header" data-pptx-bounds="32 20 1216 82"><text x="34" y="58" font-family="PingFang SC" font-size="32" font-weight="700" fill="#083F91">21｜行业优势：四层壁垒形成领域领先能力</text><text x="34" y="88" font-family="PingFang SC" font-size="17" fill="#5A6C82">优势来自行业数据、AI 工程、业务闭环和可信证据的叠加，而非单一模型参数</text><line x1="34" y1="104" x2="1246" y2="104" stroke="#BCD3EC"/></g><g id="moat" data-pptx-bounds="60 145 610 475"><path d="M130 555 H600 L535 465 H195 Z" fill="#0753B8"/><path d="M195 455 H535 L485 365 H245 Z" fill="#1971CC"/><path d="M245 355 H485 L445 265 H285 Z" fill="#3188D7"/><path d="M285 255 H445 L410 165 H320 Z" fill="#7B61C9"/><text x="365" y="515" text-anchor="middle" font-family="PingFang SC" font-size="23" font-weight="700" fill="#FFFFFF">数据壁垒</text><text x="365" y="415" text-anchor="middle" font-family="PingFang SC" font-size="23" font-weight="700" fill="#FFFFFF">技术壁垒</text><text x="365" y="315" text-anchor="middle" font-family="PingFang SC" font-size="23" font-weight="700" fill="#FFFFFF">业务壁垒</text><text x="365" y="215" text-anchor="middle" font-family="PingFang SC" font-size="23" font-weight="700" fill="#FFFFFF">可信壁垒</text><text x="365" y="590" text-anchor="middle" font-family="PingFang SC" font-size="15" fill="#53677F">4 亿+图谱节点｜百万份历史标书｜法规与实时业务数据</text></g><g id="comparison" data-pptx-bounds="700 145 520 475"><rect x="700" y="145" width="520" height="475" rx="20" fill="#FFFFFF" stroke="#CFE0F2"/><text x="960" y="195" text-anchor="middle" font-family="PingFang SC" font-size="23" font-weight="700" fill="#0753B8">本项目 vs 通用大模型</text><rect x="740" y="225" width="440" height="55" fill="#E8F3FF"/><text x="770" y="260" font-family="PingFang SC" font-size="16" font-weight="700" fill="#334A67">能力维度</text><text x="960" y="260" text-anchor="middle" font-family="PingFang SC" font-size="16" font-weight="700" fill="#0753B8">数字合规官</text><text x="1135" y="260" text-anchor="middle" font-family="PingFang SC" font-size="16" font-weight="700" fill="#7B8CA1">通用模型</text><path d="M740 330 H1180 M740 380 H1180 M740 430 H1180 M740 480 H1180 M905 225 V535 M1080 225 V535" stroke="#D4E1EE"/><text x="770" y="317" font-family="PingFang SC" font-size="15" fill="#3E4C60">行业数据</text><text x="960" y="317" text-anchor="middle" font-family="PingFang SC" font-size="16" fill="#42A96B">深度沉淀</text><text x="1135" y="317" text-anchor="middle" font-family="PingFang SC" font-size="16" fill="#7B8CA1">有限</text><text x="770" y="367" font-family="PingFang SC" font-size="15" fill="#3E4C60">规则与证据</text><text x="960" y="367" text-anchor="middle" font-family="PingFang SC" font-size="16" fill="#42A96B">可定位</text><text x="1135" y="367" text-anchor="middle" font-family="PingFang SC" font-size="16" fill="#7B8CA1">弱</text><text x="770" y="417" font-family="PingFang SC" font-size="15" fill="#3E4C60">实时业务闭环</text><text x="960" y="417" text-anchor="middle" font-family="PingFang SC" font-size="16" fill="#42A96B">嵌入节点</text><text x="1135" y="417" text-anchor="middle" font-family="PingFang SC" font-size="16" fill="#7B8CA1">未嵌入</text><text x="770" y="467" font-family="PingFang SC" font-size="15" fill="#3E4C60">审计追溯</text><text x="960" y="467" text-anchor="middle" font-family="PingFang SC" font-size="16" fill="#42A96B">全过程</text><text x="1135" y="467" text-anchor="middle" font-family="PingFang SC" font-size="16" fill="#7B8CA1">有限</text><rect x="760" y="550" width="180" height="45" rx="22" fill="#0753B8"/><text x="850" y="579" text-anchor="middle" font-family="PingFang SC" font-size="16" font-weight="700" fill="#FFFFFF">准确率 89%</text><rect x="970" y="550" width="210" height="45" rx="22" fill="#FFF0E7"/><text x="1075" y="579" text-anchor="middle" font-family="PingFang SC" font-size="16" font-weight="700" fill="#D95C1A">推理耗时 10%</text></g><text id="note" data-pptx-role="footer" x="1235" y="694" text-anchor="end" font-family="PingFang SC" font-size="12" fill="#7B8CA1">8 大方向正式测评材料待补充</text></svg>
