<svg xmlns="http://www.w3.org/2000/svg" width="1280" height="720" viewBox="0 0 1280 720" data-pptx-page-role="content">
  <rect id="bg" data-pptx-role="background" width="1280" height="720" fill="#F6F9FD"/><g id="header" data-pptx-bounds="32 20 1216 82"><text x="34" y="58" font-family="PingFang SC" font-size="32" font-weight="700" fill="#083F91">07｜监管业务架构：一条业务链、三条贯通流</text><text x="34" y="88" font-family="PingFang SC" font-size="17" fill="#5A6C82">业务流推进交易，风险流推动处置，证据流保障审计，数据流按权支撑各节点</text><line x1="34" y1="104" x2="1246" y2="104" stroke="#BCD3EC"/></g>
  <g id="swimlane" data-pptx-bounds="35 135 1210 480"><rect x="35" y="135" width="1210" height="470" rx="16" fill="#FFFFFF" stroke="#BDD3EA"/><rect x="35" y="135" width="160" height="470" rx="16" fill="#E8F3FF"/><line x1="195" y1="135" x2="195" y2="605" stroke="#BDD3EA"/><line x1="35" y1="225" x2="1245" y2="225" stroke="#D2E0EF"/><line x1="35" y1="315" x2="1245" y2="315" stroke="#D2E0EF"/><line x1="35" y1="405" x2="1245" y2="405" stroke="#D2E0EF"/><line x1="35" y1="495" x2="1245" y2="495" stroke="#D2E0EF"/><line x1="405" y1="135" x2="405" y2="605" stroke="#E0E9F3"/><line x1="615" y1="135" x2="615" y2="605" stroke="#E0E9F3"/><line x1="825" y1="135" x2="825" y2="605" stroke="#E0E9F3"/><line x1="1035" y1="135" x2="1035" y2="605" stroke="#E0E9F3"/><text x="115" y="187" text-anchor="middle" font-family="PingFang SC" font-size="19" font-weight="700" fill="#0753B8">业务流</text><text x="115" y="277" text-anchor="middle" font-family="PingFang SC" font-size="19" font-weight="700" fill="#FF6B20">风险流</text><text x="115" y="367" text-anchor="middle" font-family="PingFang SC" font-size="19" font-weight="700" fill="#7B61C9">证据流</text><text x="115" y="457" text-anchor="middle" font-family="PingFang SC" font-size="19" font-weight="700" fill="#1971CC">数据流</text><text x="115" y="547" text-anchor="middle" font-family="PingFang SC" font-size="19" font-weight="700" fill="#42A96B">监管角色</text><text x="300" y="166" text-anchor="middle" font-family="PingFang SC" font-size="17" font-weight="700" fill="#334A67">采购需求</text><text x="510" y="166" text-anchor="middle" font-family="PingFang SC" font-size="17" font-weight="700" fill="#334A67">招标发布</text><text x="720" y="166" text-anchor="middle" font-family="PingFang SC" font-size="17" font-weight="700" fill="#334A67">投标响应</text><text x="930" y="166" text-anchor="middle" font-family="PingFang SC" font-size="17" font-weight="700" fill="#334A67">评标定标</text><text x="1140" y="166" text-anchor="middle" font-family="PingFang SC" font-size="17" font-weight="700" fill="#334A67">合同履约</text><path d="M235 195 H1190" stroke="#0753B8" stroke-width="8" stroke-linecap="round"/><circle cx="300" cy="195" r="12" fill="#FFFFFF" stroke="#0753B8" stroke-width="5"/><circle cx="510" cy="195" r="12" fill="#FFFFFF" stroke="#0753B8" stroke-width="5"/><circle cx="720" cy="195" r="12" fill="#FFFFFF" stroke="#0753B8" stroke-width="5"/><circle cx="930" cy="195" r="12" fill="#FFFFFF" stroke="#0753B8" stroke-width="5"/><circle cx="1140" cy="195" r="12" fill="#FFFFFF" stroke="#0753B8" stroke-width="5"/><text x="300" y="276" text-anchor="middle" font-family="PingFang SC" font-size="15" fill="#3E4C60">规则触发</text><text x="510" y="276" text-anchor="middle" font-family="PingFang SC" font-size="15" fill="#FF6B20">风险分级</text><text x="720" y="276" text-anchor="middle" font-family="PingFang SC" font-size="15" fill="#FF6B20">预警 / 拦截</text><text x="930" y="276" text-anchor="middle" font-family="PingFang SC" font-size="15" fill="#3E4C60">人工核查</text><text x="1140" y="276" text-anchor="middle" font-family="PingFang SC" font-size="15" fill="#42A96B">整改解除</text><path d="M250 295 H1175" stroke="#FF8A3D" stroke-width="4" stroke-dasharray="10,7"/><text x="300" y="367" text-anchor="middle" font-family="PingFang SC" font-size="14" fill="#5A4A77">原始文件</text><text x="510" y="367" text-anchor="middle" font-family="PingFang SC" font-size="14" fill="#5A4A77">特征命中</text><text x="720" y="367" text-anchor="middle" font-family="PingFang SC" font-size="14" fill="#5A4A77">法规依据</text><text x="930" y="367" text-anchor="middle" font-family="PingFang SC" font-size="14" fill="#5A4A77">操作日志</text><text x="1140" y="367" text-anchor="middle" font-family="PingFang SC" font-size="14" fill="#5A4A77">审计归档</text><path d="M250 386 H1175" stroke="#7B61C9" stroke-width="4"/><text x="300" y="457" text-anchor="middle" font-family="PingFang SC" font-size="14" fill="#3E4C60">交易数据</text><text x="510" y="457" text-anchor="middle" font-family="PingFang SC" font-size="14" fill="#3E4C60">法规规则</text><text x="720" y="457" text-anchor="middle" font-family="PingFang SC" font-size="14" fill="#3E4C60">主体信用</text><text x="930" y="457" text-anchor="middle" font-family="PingFang SC" font-size="14" fill="#3E4C60">历史行为</text><text x="1140" y="457" text-anchor="middle" font-family="PingFang SC" font-size="14" fill="#3E4C60">反馈结果</text><text x="300" y="547" text-anchor="middle" font-family="PingFang SC" font-size="14" fill="#3E4C60">业务经办</text><text x="510" y="547" text-anchor="middle" font-family="PingFang SC" font-size="14" fill="#3E4C60">合规人员</text><text x="720" y="547" text-anchor="middle" font-family="PingFang SC" font-size="14" fill="#3E4C60">评标人员</text><text x="930" y="547" text-anchor="middle" font-family="PingFang SC" font-size="14" fill="#3E4C60">审计人员</text><text x="1140" y="547" text-anchor="middle" font-family="PingFang SC" font-size="14" fill="#3E4C60">监管人员</text></g>
  <g id="legend" data-pptx-bounds="240 630 800 45"><circle cx="260" cy="650" r="8" fill="#FF6B20"/><text x="278" y="656" font-family="PingFang SC" font-size="14" fill="#52677F">风险触发</text><circle cx="450" cy="650" r="8" fill="#42A96B"/><text x="468" y="656" font-family="PingFang SC" font-size="14" fill="#52677F">处置完成</text><circle cx="640" cy="650" r="8" fill="#7B61C9"/><text x="658" y="656" font-family="PingFang SC" font-size="14" fill="#52677F">存证节点</text><text x="1030" y="656" text-anchor="end" font-family="PingFang SC" font-size="14" fill="#52677F">横轴：招采阶段｜纵轴：监管贯通流</text></g>
</svg>
