<svg xmlns="http://www.w3.org/2000/svg" width="1280" height="720" viewBox="0 0 1280 720" data-pptx-page-role="content">
  <defs>
    <linearGradient id="bg" x1="0" y1="0" x2="0" y2="1">
      <stop offset="0%" stop-color="#EDF6FF"/>
      <stop offset="100%" stop-color="#F8FBFF"/>
    </linearGradient>
    <filter id="cardShadow" x="-20%" y="-20%" width="140%" height="150%">
      <feDropShadow dx="0" dy="3" stdDeviation="5" flood-color="#0A3E83" flood-opacity="0.10"/>
    </filter>
    <filter id="cardShadowHeavy" x="-20%" y="-20%" width="140%" height="150%">
      <feDropShadow dx="0" dy="4" stdDeviation="6" flood-color="#0A3E83" flood-opacity="0.14"/>
    </filter>
    <marker id="arrowBlue" markerWidth="10" markerHeight="10" refX="9" refY="3" orient="auto" markerUnits="strokeWidth">
      <path d="M0,0 L0,6 L9,3 z" fill="#0753B8"/>
    </marker>
    <marker id="arrowRed" markerWidth="10" markerHeight="10" refX="9" refY="3" orient="auto" markerUnits="strokeWidth">
      <path d="M0,0 L0,6 L9,3 z" fill="#FF6B20"/>
    </marker>
  </defs>

  <!-- Background -->
  <rect id="page-background" data-pptx-role="background" x="0" y="0" width="1280" height="720" fill="#F4F8FD"/>

  <!-- Header -->
  <g id="header" data-pptx-bounds="32 20 1216 82">
    <text x="34" y="58" font-family="PingFang SC" font-size="32" font-weight="700" fill="#083F91">风险识别流程：业务上报驱动规则核查</text>
    <text x="1130" y="58" font-family="PingFang SC" font-size="20" font-weight="700" fill="#083F91">第 6 页</text>
    <line x1="34" y1="74" x2="1246" y2="74" stroke="#BCD3EC" stroke-width="2"/>
  </g>

  <!-- Core Conclusion -->
  <g id="core-conclusion" data-pptx-bounds="34 85 1200 52">
    <!-- Target icon -->
    <g transform="translate(34, 88)">
      <circle cx="16" cy="16" r="14" fill="none" stroke="#0753B8" stroke-width="2.5"/>
      <circle cx="16" cy="16" r="8" fill="none" stroke="#0753B8" stroke-width="2"/>
      <circle cx="16" cy="16" r="3" fill="#0753B8"/>
      <line x1="16" y1="2" x2="16" y2="30" stroke="#0753B8" stroke-width="1.5"/>
      <line x1="2" y1="16" x2="30" y2="16" stroke="#0753B8" stroke-width="1.5"/>
    </g>
    <text x="72" y="108" font-family="PingFang SC" font-size="18" font-weight="700" fill="#0753B8">核心结论</text>
    <text x="160" y="108" font-family="PingFang SC" font-size="15" fill="#5A6C82">系统在招采关键节点接收业务侧上报数据，经统一清洗形成标准结构化数据，再按业务场景分发至对应风控规则，</text>
    <text x="160" y="128" font-family="PingFang SC" font-size="15" fill="#5A6C82">输出预警或拦截结果并返回业务流程。</text>
  </g>

  <!-- Left Data Source Panel -->
  <g id="data-source-panel" data-pptx-bounds="20 145 140 325">
    <rect x="20" y="145" width="140" height="325" rx="12" fill="#E8F1FA" stroke="#D4E4F8" stroke-width="1"/>
    <text x="90" y="168" font-family="PingFang SC" font-size="13" font-weight="700" fill="#0753B8" text-anchor="middle">外部数据与合规依据</text>
    <text x="90" y="184" font-family="PingFang SC" font-size="11" fill="#5A6C82" text-anchor="middle">（风控侧数据支撑）</text>

    <!-- Item 1: 资质信息 -->
    <g transform="translate(40, 200)">
      <rect x="0" y="0" width="100" height="50" rx="8" fill="#FFFFFF" stroke="#D4E4F8" stroke-width="1"/>
      <g transform="translate(8, 8)">
        <rect x="2" y="8" width="16" height="12" rx="2" fill="none" stroke="#0753B8" stroke-width="1.5"/>
        <rect x="6" y="2" width="8" height="8" rx="1" fill="none" stroke="#0753B8" stroke-width="1.5"/>
        <line x1="8" y1="5" x2="12" y2="5" stroke="#0753B8" stroke-width="1"/>
      </g>
      <text x="38" y="18" font-family="PingFang SC" font-size="11" fill="#1B2638">资质信息</text>
      <text x="38" y="32" font-family="PingFang SC" font-size="9" fill="#8AAFD6">（资质库）</text>
    </g>

    <!-- Item 2: 工商信息 -->
    <g transform="translate(40, 258)">
      <rect x="0" y="0" width="100" height="50" rx="8" fill="#FFFFFF" stroke="#D4E4F8" stroke-width="1"/>
      <g transform="translate(8, 8)">
        <rect x="2" y="2" width="16" height="20" rx="2" fill="none" stroke="#0753B8" stroke-width="1.5"/>
        <line x1="6" y1="8" x2="14" y2="8" stroke="#0753B8" stroke-width="1"/>
        <line x1="6" y1="12" x2="14" y2="12" stroke="#0753B8" stroke-width="1"/>
        <line x1="6" y1="16" x2="11" y2="16" stroke="#0753B8" stroke-width="1"/>
      </g>
      <text x="38" y="18" font-family="PingFang SC" font-size="11" fill="#1B2638">工商信息</text>
      <text x="38" y="32" font-family="PingFang SC" font-size="9" fill="#8AAFD6">（工商库）</text>
    </g>

    <!-- Item 3: 失信信息 -->
    <g transform="translate(40, 316)">
      <rect x="0" y="0" width="100" height="50" rx="8" fill="#FFFFFF" stroke="#D4E4F8" stroke-width="1"/>
      <g transform="translate(8, 8)">
        <path d="M10 2 L18 6 L18 14 L10 18 L2 14 L2 6 Z" fill="none" stroke="#0753B8" stroke-width="1.5"/>
        <line x1="10" y1="7" x2="10" y2="13" stroke="#0753B8" stroke-width="1.5"/>
        <circle cx="10" cy="5.5" r="0.8" fill="#0753B8"/>
      </g>
      <text x="38" y="18" font-family="PingFang SC" font-size="11" fill="#1B2638">失信信息</text>
      <text x="38" y="32" font-family="PingFang SC" font-size="9" fill="#8AAFD6">（失信库）</text>
    </g>

    <!-- Item 4: 合规要求 -->
    <g transform="translate(40, 374)">
      <rect x="0" y="0" width="100" height="50" rx="8" fill="#FFFFFF" stroke="#D4E4F8" stroke-width="1"/>
      <g transform="translate(8, 8)">
        <rect x="2" y="2" width="16" height="20" rx="2" fill="none" stroke="#0753B8" stroke-width="1.5"/>
        <line x1="5" y1="2" x2="5" y2="22" stroke="#0753B8" stroke-width="1"/>
        <line x1="8" y1="6" x2="15" y2="6" stroke="#0753B8" stroke-width="1"/>
        <line x1="8" y1="10" x2="15" y2="10" stroke="#0753B8" stroke-width="1"/>
        <line x1="8" y1="14" x2="13" y2="14" stroke="#0753B8" stroke-width="1"/>
      </g>
      <text x="38" y="18" font-family="PingFang SC" font-size="11" fill="#1B2638">合规要求</text>
      <text x="38" y="32" font-family="PingFang SC" font-size="9" fill="#8AAFD6">法律法规/制度规则</text>
    </g>

    <!-- Arrow from panel to step 1 -->
    <line x1="160" y1="310" x2="170" y2="310" stroke="#0753B8" stroke-width="1.5" marker-end="url(#arrowBlue)"/>
  </g>

  <!-- Step 1: 业务节点触发 -->
  <g id="step1" data-pptx-bounds="170 155 150 290">
    <rect x="170" y="155" width="150" height="290" rx="12" fill="#FFFFFF" stroke="#D4E4F8" stroke-width="1" filter="url(#cardShadow)"/>
    <!-- Number badge -->
    <circle cx="195" cy="180" r="14" fill="#0753B8"/>
    <text x="195" y="185" font-family="Arial" font-size="14" font-weight="700" text-anchor="middle" fill="#FFFFFF">1</text>
    <text x="218" y="185" font-family="PingFang SC" font-size="14" font-weight="700" fill="#1B2638">业务节点触发</text>

    <!-- Bell icon -->
    <g transform="translate(210, 210)">
      <path d="M15 4 C15 2 13 0 10 0 C7 0 5 2 5 4 L5 6 C5 10 2 12 2 16 L18 16 C18 12 15 10 15 6 Z" fill="none" stroke="#0753B8" stroke-width="1.5"/>
      <line x1="8" y1="18" x2="12" y2="18" stroke="#0753B8" stroke-width="1.5"/>
      <path d="M6 4 L6 2 C6 1 7 0 10 0 C13 0 14 1 14 2 L14 4" fill="none" stroke="#0753B8" stroke-width="1.5"/>
    </g>

    <!-- Description -->
    <text x="180" y="250" font-family="PingFang SC" font-size="11" fill="#5A6C82">公告发布审批前、</text>
    <text x="180" y="265" font-family="PingFang SC" font-size="11" fill="#5A6C82">报名截止后及其他</text>
    <text x="180" y="280" font-family="PingFang SC" font-size="11" fill="#5A6C82">关键节点触发核查</text>

    <line x1="180" y1="295" x2="310" y2="295" stroke="#E8F1FA" stroke-width="1"/>

    <text x="180" y="315" font-family="PingFang SC" font-size="11" fill="#1B2638">• 业务系统按场景</text>
    <text x="190" y="328" font-family="PingFang SC" font-size="10" fill="#5A6C82">上报所需数据</text>
    <text x="180" y="345" font-family="PingFang SC" font-size="11" fill="#1B2638">• 项目、文件、供应商、</text>
    <text x="190" y="358" font-family="PingFang SC" font-size="10" fill="#5A6C82">交易等数据</text>

    <!-- Arrow to step 2 -->
    <line x1="320" y1="300" x2="330" y2="300" stroke="#0753B8" stroke-width="1.5" marker-end="url(#arrowBlue)"/>
  </g>

  <!-- Step 2: 场景数据上报 -->
  <g id="step2" data-pptx-bounds="335 155 150 290">
    <rect x="335" y="155" width="150" height="290" rx="12" fill="#FFFFFF" stroke="#D4E4F8" stroke-width="1" filter="url(#cardShadow)"/>
    <circle cx="360" cy="180" r="14" fill="#0753B8"/>
    <text x="360" y="185" font-family="Arial" font-size="14" font-weight="700" text-anchor="middle" fill="#FFFFFF">2</text>
    <text x="383" y="185" font-family="PingFang SC" font-size="14" font-weight="700" fill="#1B2638">场景数据上报</text>

    <!-- Cloud upload icon -->
    <g transform="translate(375, 210)">
      <path d="M5 14 C2 14 0 12 0 9 C0 6 2 4 5 4 C5 1 8 0 11 0 C14 0 17 2 18 5 C20 5 22 7 22 10 C22 13 20 14 18 14 Z" fill="none" stroke="#0753B8" stroke-width="1.5"/>
      <line x1="11" y1="8" x2="11" y2="16" stroke="#0753B8" stroke-width="1.5"/>
      <polyline points="8,12 11,8 14,12" fill="none" stroke="#0753B8" stroke-width="1.5"/>
    </g>

    <text x="345" y="250" font-family="PingFang SC" font-size="11" fill="#5A6C82">按业务数据上报</text>
    <text x="345" y="265" font-family="PingFang SC" font-size="11" fill="#5A6C82">本次核查所需数据</text>

    <line x1="345" y1="280" x2="475" y2="280" stroke="#E8F1FA" stroke-width="1"/>

    <text x="345" y="300" font-family="PingFang SC" font-size="11" fill="#1B2638">• 公告及采购数据</text>
    <text x="345" y="318" font-family="PingFang SC" font-size="11" fill="#1B2638">• 供应商主体与附件</text>
    <text x="345" y="336" font-family="PingFang SC" font-size="11" fill="#1B2638">• 交易与评审数据等</text>

    <!-- Arrow to step 3 -->
    <line x1="485" y1="300" x2="495" y2="300" stroke="#0753B8" stroke-width="1.5" marker-end="url(#arrowBlue)"/>
  </g>

  <!-- Step 3: 风控统一接收 -->
  <g id="step3" data-pptx-bounds="500 155 150 290">
    <rect x="500" y="155" width="150" height="290" rx="12" fill="#FFFFFF" stroke="#D4E4F8" stroke-width="1" filter="url(#cardShadow)"/>
    <circle cx="525" cy="180" r="14" fill="#0753B8"/>
    <text x="525" y="185" font-family="Arial" font-size="14" font-weight="700" text-anchor="middle" fill="#FFFFFF">3</text>
    <text x="548" y="185" font-family="PingFang SC" font-size="14" font-weight="700" fill="#1B2638">风控统一接收</text>

    <!-- Database icon -->
    <g transform="translate(540, 210)">
      <ellipse cx="12" cy="4" rx="10" ry="4" fill="none" stroke="#0753B8" stroke-width="1.5"/>
      <path d="M2 4 L2 16 C2 18 6 20 12 20 C18 20 22 18 22 16 L22 4" fill="none" stroke="#0753B8" stroke-width="1.5"/>
      <path d="M2 10 C2 12 6 14 12 14 C18 14 22 12 22 10" fill="none" stroke="#0753B8" stroke-width="1.5"/>
      <circle cx="20" cy="2" r="4" fill="#FF6B20" stroke="none"/>
      <text x="20" y="4" font-family="Arial" font-size="5" font-weight="700" text-anchor="middle" fill="#FFFFFF">+</text>
    </g>

    <text x="510" y="250" font-family="PingFang SC" font-size="11" fill="#5A6C82">识别业务场景与核查对象</text>
    <text x="510" y="265" font-family="PingFang SC" font-size="11" fill="#5A6C82">关联内外部数据与要求</text>

    <line x1="510" y1="280" x2="640" y2="280" stroke="#E8F1FA" stroke-width="1"/>

    <text x="510" y="300" font-family="PingFang SC" font-size="11" fill="#1B2638">• 识别场景、对象与节点</text>
    <text x="510" y="318" font-family="PingFang SC" font-size="11" fill="#1B2638">• 关联资质、工商、失信、</text>
    <text x="520" y="331" font-family="PingFang SC" font-size="10" fill="#5A6C82">历史文件</text>
    <text x="510" y="348" font-family="PingFang SC" font-size="11" fill="#1B2638">• 关联适用合规要求</text>

    <!-- Arrow to step 4 -->
    <line x1="650" y1="300" x2="660" y2="300" stroke="#0753B8" stroke-width="1.5" marker-end="url(#arrowBlue)"/>
  </g>

  <!-- Step 4: 清洗形成结构化数据 -->
  <g id="step4" data-pptx-bounds="665 155 150 290">
    <rect x="665" y="155" width="150" height="290" rx="12" fill="#FFFFFF" stroke="#D4E4F8" stroke-width="1" filter="url(#cardShadow)"/>
    <circle cx="685" cy="180" r="14" fill="#0753B8"/>
    <text x="685" y="185" font-family="Arial" font-size="14" font-weight="700" text-anchor="middle" fill="#FFFFFF">4</text>
    <text x="698" y="185" font-family="PingFang SC" font-size="11" font-weight="700" fill="#1B2638">清洗形成结构化数据</text>

    <!-- Document icon -->
    <g transform="translate(705, 210)">
      <rect x="2" y="2" width="18" height="22" rx="2" fill="none" stroke="#0753B8" stroke-width="1.5"/>
      <line x1="6" y1="8" x2="16" y2="8" stroke="#0753B8" stroke-width="1"/>
      <line x1="6" y1="12" x2="16" y2="12" stroke="#0753B8" stroke-width="1"/>
      <line x1="6" y1="16" x2="12" y2="16" stroke="#0753B8" stroke-width="1"/>
      <polyline points="14,2 14,6 18,6" fill="none" stroke="#0753B8" stroke-width="1"/>
    </g>

    <text x="675" y="250" font-family="PingFang SC" font-size="11" fill="#5A6C82">内容提取、字段清洗、</text>
    <text x="675" y="265" font-family="PingFang SC" font-size="11" fill="#5A6C82">主体对齐、格式标准化</text>

    <line x1="675" y1="280" x2="805" y2="280" stroke="#E8F1FA" stroke-width="1"/>

    <text x="675" y="300" font-family="PingFang SC" font-size="11" fill="#1B2638">• 公告、附件内容提取</text>
    <text x="675" y="318" font-family="PingFang SC" font-size="11" fill="#1B2638">• 字段清洗与标准化</text>
    <text x="675" y="336" font-family="PingFang SC" font-size="11" fill="#1B2638">• 主体对齐与去重</text>
    <text x="675" y="354" font-family="PingFang SC" font-size="11" fill="#1B2638">• 形成结构化数据集</text>

    <!-- Arrow to step 5 -->
    <line x1="815" y1="300" x2="825" y2="300" stroke="#0753B8" stroke-width="1.5" marker-end="url(#arrowBlue)"/>
  </g>

  <!-- Step 5: 规则分发与判定 (wider) -->
  <g id="step5" data-pptx-bounds="830 155 220 290">
    <rect x="830" y="155" width="220" height="290" rx="12" fill="#FFFFFF" stroke="#D4E4F8" stroke-width="1" filter="url(#cardShadow)"/>
    <circle cx="855" cy="180" r="14" fill="#0753B8"/>
    <text x="855" y="185" font-family="Arial" font-size="14" font-weight="700" text-anchor="middle" fill="#FFFFFF">5</text>
    <text x="878" y="185" font-family="PingFang SC" font-size="14" font-weight="700" fill="#1B2638">规则分发与判定</text>

    <!-- Sub title -->
    <rect x="840" y="200" width="80" height="18" rx="4" fill="#FFF0E5"/>
    <text x="880" y="212" font-family="PingFang SC" font-size="10" fill="#FF6B20" text-anchor="middle">规则引擎（并行执行）</text>

    <!-- Structured data icon -->
    <g transform="translate(840, 228)">
      <rect x="0" y="0" width="40" height="30" rx="4" fill="#E7F1FF" stroke="#A9C9ED" stroke-width="1"/>
      <line x1="4" y1="6" x2="36" y2="6" stroke="#8AAFD6" stroke-width="1"/>
      <line x1="4" y1="12" x2="36" y2="12" stroke="#8AAFD6" stroke-width="1"/>
      <line x1="4" y1="18" x2="36" y2="18" stroke="#8AAFD6" stroke-width="1"/>
      <line x1="4" y1="24" x2="24" y2="24" stroke="#8AAFD6" stroke-width="1"/>
    </g>
    <text x="860" y="270" font-family="PingFang SC" font-size="9" fill="#5A6C82" text-anchor="middle">结构化数据集</text>

    <!-- Arrow up to rules -->
    <line x1="900" y1="245" x2="920" y2="245" stroke="#0753B8" stroke-width="1" marker-end="url(#arrowBlue)"/>

    <!-- Rule items -->
    <g transform="translate(930, 225)">
      <rect x="0" y="0" width="110" height="22" rx="4" fill="#E7F1FF" stroke="#A9C9ED" stroke-width="1"/>
      <text x="8" y="14" font-family="PingFang SC" font-size="9" fill="#0753B8">代码规则</text>
      <text x="50" y="14" font-family="PingFang SC" font-size="8" fill="#5A6C82">（逻辑校验）</text>
    </g>
    <g transform="translate(930, 250)">
      <rect x="0" y="0" width="110" height="22" rx="4" fill="#E7F1FF" stroke="#A9C9ED" stroke-width="1"/>
      <text x="8" y="14" font-family="PingFang SC" font-size="9" fill="#0753B8">AI 识别</text>
      <text x="50" y="14" font-family="PingFang SC" font-size="8" fill="#5A6C82">（模型判定）</text>
    </g>
    <g transform="translate(930, 275)">
      <rect x="0" y="0" width="110" height="22" rx="4" fill="#E7F1FF" stroke="#A9C9ED" stroke-width="1"/>
      <text x="8" y="14" font-family="PingFang SC" font-size="9" fill="#0753B8">外部数据核验</text>
      <text x="72" y="14" font-family="PingFang SC" font-size="8" fill="#5A6C82">（服务调用）</text>
    </g>

    <!-- Arrow to judgment -->
    <line x1="985" y1="300" x2="985" y2="315" stroke="#0753B8" stroke-width="1" marker-end="url(#arrowBlue)"/>

    <!-- Judgment box -->
    <rect x="935" y="318" width="100" height="32" rx="6" fill="#FFF0E5" stroke="#FFD4A3" stroke-width="1"/>
    <text x="985" y="338" font-family="PingFang SC" font-size="11" font-weight="700" fill="#FF6B20" text-anchor="middle">规则命中判定</text>

    <!-- Description -->
    <text x="840" y="370" font-family="PingFang SC" font-size="10" fill="#5A6C82">汇总命中状态、风险内容、</text>
    <text x="840" y="382" font-family="PingFang SC" font-size="10" fill="#5A6C82">原文位置与依据</text>

    <text x="840" y="400" font-family="PingFang SC" font-size="10" fill="#1B2638">• 确定风险等级</text>
    <text x="840" y="412" font-family="PingFang SC" font-size="10" fill="#1B2638">• 输出处置动作</text>
    <text x="840" y="424" font-family="PingFang SC" font-size="10" fill="#1B2638">• 记录判断依据</text>

    <!-- Arrow to step 6 -->
    <line x1="1050" y1="300" x2="1060" y2="300" stroke="#0753B8" stroke-width="1.5" marker-end="url(#arrowBlue)"/>
  </g>

  <!-- Step 6: 结果返回业务 -->
  <g id="step6" data-pptx-bounds="1065 155 200 290">
    <rect x="1065" y="155" width="200" height="290" rx="12" fill="#FFFFFF" stroke="#D4E4F8" stroke-width="1" filter="url(#cardShadow)"/>
    <circle cx="1090" cy="180" r="14" fill="#0753B8"/>
    <text x="1090" y="185" font-family="Arial" font-size="14" font-weight="700" text-anchor="middle" fill="#FFFFFF">6</text>
    <text x="1113" y="185" font-family="PingFang SC" font-size="14" font-weight="700" fill="#1B2638">结果返回业务</text>

    <!-- Result 1: 通过 -->
    <g transform="translate(1075, 210)">
      <rect x="0" y="0" width="180" height="50" rx="8" fill="#F6FFED" stroke="#B7EB8F" stroke-width="1"/>
      <circle cx="20" cy="25" r="12" fill="#52C41A"/>
      <path d="M14 25 L18 29 L26 21" fill="none" stroke="#FFFFFF" stroke-width="2" stroke-linecap="round" stroke-linejoin="round"/>
      <text x="42" y="22" font-family="PingFang SC" font-size="13" font-weight="700" fill="#52C41A">通过</text>
      <text x="42" y="38" font-family="PingFang SC" font-size="10" fill="#5A6C82">继续业务流程</text>
    </g>

    <!-- Result 2: 提示/复核 -->
    <g transform="translate(1075, 268)">
      <rect x="0" y="0" width="180" height="50" rx="8" fill="#FFFBE6" stroke="#FFE58F" stroke-width="1"/>
      <circle cx="20" cy="25" r="12" fill="#FAAD14"/>
      <text x="20" y="30" font-family="Arial" font-size="16" font-weight="700" text-anchor="middle" fill="#FFFFFF">!</text>
      <text x="42" y="22" font-family="PingFang SC" font-size="13" font-weight="700" fill="#FAAD14">提示/复核</text>
      <text x="42" y="38" font-family="PingFang SC" font-size="10" fill="#5A6C82">提示风险，人工复核或确认</text>
    </g>

    <!-- Result 3: 预警/拦截 -->
    <g transform="translate(1075, 326)">
      <rect x="0" y="0" width="180" height="50" rx="8" fill="#FFF1F0" stroke="#FFA39E" stroke-width="1"/>
      <circle cx="20" cy="25" r="12" fill="#F5222D"/>
      <path d="M14 19 L26 19 L20 31 Z" fill="#FFFFFF"/>
      <text x="20" y="29" font-family="Arial" font-size="10" font-weight="700" text-anchor="middle" fill="#F5222D">!</text>
      <text x="42" y="22" font-family="PingFang SC" font-size="13" font-weight="700" fill="#F5222D">预警/拦截</text>
      <text x="42" y="38" font-family="PingFang SC" font-size="9" fill="#5A6C82">关键节点预警或拦截，修改后</text>
      <text x="42" y="48" font-family="PingFang SC" font-size="9" fill="#5A6C82">可再次提交核查</text>
    </g>

    <!-- Return arrow (dashed red) -->
    <path d="M1165 400 L1165 420 L100 420 L100 310" fill="none" stroke="#FF6B20" stroke-width="1.5" stroke-dasharray="6,4" marker-end="url(#arrowRed)"/>
    <text x="1080" y="415" font-family="PingFang SC" font-size="9" fill="#FF6B20">拦截或需修改 → 修改后重新上报核查</text>
  </g>

  <!-- Bottom Section: Typical Scenarios -->
  <g id="scenarios" data-pptx-bounds="20 460 1240 230">
    <!-- Left panel -->
    <rect x="20" y="460" width="200" height="230" rx="12" fill="#E8F1FA" stroke="#D4E4F8" stroke-width="1"/>

    <!-- Document icon large -->
    <g transform="translate(80, 490)">
      <rect x="0" y="0" width="50" height="60" rx="4" fill="#FFFFFF" stroke="#0753B8" stroke-width="2"/>
      <line x1="10" y1="15" x2="40" y2="15" stroke="#0753B8" stroke-width="2"/>
      <line x1="10" y1="25" x2="40" y2="25" stroke="#0753B8" stroke-width="2"/>
      <line x1="10" y1="35" x2="35" y2="35" stroke="#0753B8" stroke-width="2"/>
      <line x1="10" y1="45" x2="30" y2="45" stroke="#0753B8" stroke-width="2"/>
      <circle cx="40" cy="50" r="10" fill="#0753B8"/>
      <path d="M36 50 L40 54 L46 48" fill="none" stroke="#FFFFFF" stroke-width="2" stroke-linecap="round"/>
    </g>

    <text x="120" y="570" font-family="PingFang SC" font-size="16" font-weight="700" fill="#083F91" text-anchor="middle">典型场景示例</text>
    <text x="120" y="590" font-family="PingFang SC" font-size="11" fill="#5A6C82" text-anchor="middle">（上报数据 → 代表规则</text>
    <text x="120" y="605" font-family="PingFang SC" font-size="11" fill="#5A6C82" text-anchor="middle">→ 输出动作）</text>

    <!-- Scenario 1 -->
    <g transform="translate(240, 460)">
      <rect x="0" y="0" width="500" height="230" rx="12" fill="#FFFFFF" stroke="#D4E4F8" stroke-width="1" filter="url(#cardShadow)"/>
      <!-- Header bar -->
      <rect x="0" y="0" width="500" height="36" rx="12" fill="#0753B8"/>
      <text x="20" y="24" font-family="PingFang SC" font-size="14" font-weight="700" fill="#FFFFFF">场景一：公告发布审批前</text>

      <!-- Column 1: 上报数据 -->
      <text x="65" y="62" font-family="PingFang SC" font-size="12" font-weight="700" fill="#5A6C82" text-anchor="middle">上报数据</text>
      <g transform="translate(20, 75)">
        <rect x="0" y="0" width="90" height="28" rx="4" fill="#F4F8FD" stroke="#D4E4F8" stroke-width="1"/>
        <text x="45" y="18" font-family="PingFang SC" font-size="10" fill="#1B2638" text-anchor="middle">公告及附件</text>
      </g>
      <g transform="translate(20, 108)">
        <rect x="0" y="0" width="90" height="28" rx="4" fill="#F4F8FD" stroke="#D4E4F8" stroke-width="1"/>
        <text x="45" y="18" font-family="PingFang SC" font-size="10" fill="#1B2638" text-anchor="middle">采购与报价设置</text>
      </g>
      <g transform="translate(20, 141)">
        <rect x="0" y="0" width="90" height="28" rx="4" fill="#F4F8FD" stroke="#D4E4F8" stroke-width="1"/>
        <text x="45" y="18" font-family="PingFang SC" font-size="10" fill="#1B2638" text-anchor="middle">评审与交易数据</text>
      </g>
      <g transform="translate(20, 174)">
        <rect x="0" y="0" width="90" height="28" rx="4" fill="#F4F8FD" stroke="#D4E4F8" stroke-width="1"/>
        <text x="45" y="18" font-family="PingFang SC" font-size="10" fill="#1B2638" text-anchor="middle">其他相关材料</text>
      </g>

      <!-- Arrow -->
      <line x1="125" y1="130" x2="150" y2="130" stroke="#0753B8" stroke-width="1.5" marker-end="url(#arrowBlue)"/>

      <!-- Column 2: 代表规则 -->
      <text x="265" y="62" font-family="PingFang SC" font-size="12" font-weight="700" fill="#5A6C82" text-anchor="middle">代表规则</text>
      <g transform="translate(180, 75)">
        <rect x="0" y="0" width="170" height="28" rx="4" fill="#FFF0E5" stroke="#FFD4A3" stroke-width="1"/>
        <circle cx="14" cy="14" r="6" fill="#FF6B20"/>
        <path d="M11 14 L13 16 L17 12" fill="none" stroke="#FFFFFF" stroke-width="1.5" stroke-linecap="round"/>
        <text x="28" y="18" font-family="PingFang SC" font-size="10" fill="#1B2638">排斥性条款检查</text>
      </g>
      <g transform="translate(180, 108)">
        <rect x="0" y="0" width="170" height="28" rx="4" fill="#FFF0E5" stroke="#FFD4A3" stroke-width="1"/>
        <circle cx="14" cy="14" r="6" fill="#FF6B20"/>
        <path d="M11 14 L13 16 L17 12" fill="none" stroke="#FFFFFF" stroke-width="1.5" stroke-linecap="round"/>
        <text x="28" y="18" font-family="PingFang SC" font-size="10" fill="#1B2638">报价轮次与设置检查</text>
      </g>
      <g transform="translate(180, 141)">
        <rect x="0" y="0" width="170" height="28" rx="4" fill="#FFF0E5" stroke="#FFD4A3" stroke-width="1"/>
        <circle cx="14" cy="14" r="6" fill="#FF6B20"/>
        <path d="M11 14 L13 16 L17 12" fill="none" stroke="#FFFFFF" stroke-width="1.5" stroke-linecap="round"/>
        <text x="28" y="18" font-family="PingFang SC" font-size="10" fill="#1B2638">文件完整性检查</text>
      </g>
      <g transform="translate(180, 174)">
        <rect x="0" y="0" width="170" height="28" rx="4" fill="#FFF0E5" stroke="#FFD4A3" stroke-width="1"/>
        <circle cx="14" cy="14" r="6" fill="#FF6B20"/>
        <path d="M11 14 L13 16 L17 12" fill="none" stroke="#FFFFFF" stroke-width="1.5" stroke-linecap="round"/>
        <text x="28" y="18" font-family="PingFang SC" font-size="10" fill="#1B2638">合规条款符合性检查</text>
      </g>

      <!-- Arrow -->
      <line x1="365" y1="130" x2="390" y2="130" stroke="#0753B8" stroke-width="1.5" marker-end="url(#arrowBlue)"/>

      <!-- Column 3: 输出动作 -->
      <text x="445" y="62" font-family="PingFang SC" font-size="12" font-weight="700" fill="#5A6C82" text-anchor="middle">输出动作</text>
      <g transform="translate(410, 85)">
        <circle cx="12" cy="12" r="12" fill="#52C41A"/>
        <path d="M7 12 L10 15 L17 8" fill="none" stroke="#FFFFFF" stroke-width="2" stroke-linecap="round"/>
        <text x="32" y="16" font-family="PingFang SC" font-size="11" fill="#52C41A" font-weight="700">通过</text>
      </g>
      <g transform="translate(410, 115)">
        <circle cx="12" cy="12" r="12" fill="#FAAD14"/>
        <text x="12" y="17" font-family="Arial" font-size="14" font-weight="700" text-anchor="middle" fill="#FFFFFF">!</text>
        <text x="32" y="16" font-family="PingFang SC" font-size="11" fill="#FAAD14" font-weight="700">提示/复核</text>
      </g>
      <g transform="translate(410, 145)">
        <circle cx="12" cy="12" r="12" fill="#F5222D"/>
        <path d="M8 7 L16 7 L12 15 Z" fill="#FFFFFF"/>
        <text x="12" y="14" font-family="Arial" font-size="8" font-weight="700" text-anchor="middle" fill="#F5222D">!</text>
        <text x="32" y="16" font-family="PingFang SC" font-size="11" fill="#F5222D" font-weight="700">预警/拦截</text>
      </g>
    </g>

    <!-- Scenario 2 -->
    <g transform="translate(760, 460)">
      <rect x="0" y="0" width="500" height="230" rx="12" fill="#FFFFFF" stroke="#D4E4F8" stroke-width="1" filter="url(#cardShadow)"/>
      <!-- Header bar -->
      <rect x="0" y="0" width="500" height="36" rx="12" fill="#0753B8"/>
      <text x="20" y="24" font-family="PingFang SC" font-size="14" font-weight="700" fill="#FFFFFF">场景二：报名截止后</text>

      <!-- Column 1: 上报数据 -->
      <text x="65" y="62" font-family="PingFang SC" font-size="12" font-weight="700" fill="#5A6C82" text-anchor="middle">上报数据</text>
      <g transform="translate(20, 75)">
        <rect x="0" y="0" width="90" height="28" rx="4" fill="#F4F8FD" stroke="#D4E4F8" stroke-width="1"/>
        <text x="45" y="18" font-family="PingFang SC" font-size="10" fill="#1B2638" text-anchor="middle">供应商主体信息</text>
      </g>
      <g transform="translate(20, 108)">
        <rect x="0" y="0" width="90" height="28" rx="4" fill="#F4F8FD" stroke="#D4E4F8" stroke-width="1"/>
        <text x="45" y="18" font-family="PingFang SC" font-size="10" fill="#1B2638" text-anchor="middle">报名附件材料</text>
      </g>
      <g transform="translate(20, 141)">
        <rect x="0" y="0" width="90" height="28" rx="4" fill="#F4F8FD" stroke="#D4E4F8" stroke-width="1"/>
        <text x="45" y="18" font-family="PingFang SC" font-size="10" fill="#1B2638" text-anchor="middle">公告要求</text>
      </g>
      <g transform="translate(20, 174)">
        <rect x="0" y="0" width="90" height="28" rx="4" fill="#F4F8FD" stroke="#D4E4F8" stroke-width="1"/>
        <text x="45" y="18" font-family="PingFang SC" font-size="10" fill="#1B2638" text-anchor="middle">其他相关数据</text>
      </g>

      <!-- Arrow -->
      <line x1="125" y1="130" x2="150" y2="130" stroke="#0753B8" stroke-width="1.5" marker-end="url(#arrowBlue)"/>

      <!-- Column 2: 代表规则 -->
      <text x="265" y="62" font-family="PingFang SC" font-size="12" font-weight="700" fill="#5A6C82" text-anchor="middle">代表规则</text>
      <g transform="translate(180, 75)">
        <rect x="0" y="0" width="170" height="28" rx="4" fill="#FFF0E5" stroke="#FFD4A3" stroke-width="1"/>
        <circle cx="14" cy="14" r="6" fill="#FF6B20"/>
        <path d="M11 14 L13 16 L17 12" fill="none" stroke="#FFFFFF" stroke-width="1.5" stroke-linecap="round"/>
        <text x="28" y="18" font-family="PingFang SC" font-size="10" fill="#1B2638">附件符合性检查</text>
      </g>
      <g transform="translate(180, 108)">
        <rect x="0" y="0" width="170" height="28" rx="4" fill="#FFF0E5" stroke="#FFD4A3" stroke-width="1"/>
        <circle cx="14" cy="14" r="6" fill="#FF6B20"/>
        <path d="M11 14 L13 16 L17 12" fill="none" stroke="#FFFFFF" stroke-width="1.5" stroke-linecap="round"/>
        <text x="28" y="18" font-family="PingFang SC" font-size="10" fill="#1B2638">资质有效性检查</text>
      </g>
      <g transform="translate(180, 141)">
        <rect x="0" y="0" width="170" height="28" rx="4" fill="#FFF0E5" stroke="#FFD4A3" stroke-width="1"/>
        <circle cx="14" cy="14" r="6" fill="#FF6B20"/>
        <path d="M11 14 L13 16 L17 12" fill="none" stroke="#FFFFFF" stroke-width="1.5" stroke-linecap="round"/>
        <text x="28" y="18" font-family="PingFang SC" font-size="10" fill="#1B2638">工商关联性检查</text>
      </g>
      <g transform="translate(180, 174)">
        <rect x="0" y="0" width="170" height="28" rx="4" fill="#FFF0E5" stroke="#FFD4A3" stroke-width="1"/>
        <circle cx="14" cy="14" r="6" fill="#FF6B20"/>
        <path d="M11 14 L13 16 L17 12" fill="none" stroke="#FFFFFF" stroke-width="1.5" stroke-linecap="round"/>
        <text x="28" y="18" font-family="PingFang SC" font-size="10" fill="#1B2638">信息重叠/异常检查</text>
      </g>

      <!-- Arrow -->
      <line x1="365" y1="130" x2="390" y2="130" stroke="#0753B8" stroke-width="1.5" marker-end="url(#arrowBlue)"/>

      <!-- Column 3: 输出动作 -->
      <text x="445" y="62" font-family="PingFang SC" font-size="12" font-weight="700" fill="#5A6C82" text-anchor="middle">输出动作</text>
      <g transform="translate(410, 85)">
        <circle cx="12" cy="12" r="12" fill="#52C41A"/>
        <path d="M7 12 L10 15 L17 8" fill="none" stroke="#FFFFFF" stroke-width="2" stroke-linecap="round"/>
        <text x="32" y="16" font-family="PingFang SC" font-size="11" fill="#52C41A" font-weight="700">通过</text>
      </g>
      <g transform="translate(410, 115)">
        <circle cx="12" cy="12" r="12" fill="#FAAD14"/>
        <text x="12" y="17" font-family="Arial" font-size="14" font-weight="700" text-anchor="middle" fill="#FFFFFF">!</text>
        <text x="32" y="16" font-family="PingFang SC" font-size="11" fill="#FAAD14" font-weight="700">提示/复核</text>
      </g>
      <g transform="translate(410, 145)">
        <circle cx="12" cy="12" r="12" fill="#F5222D"/>
        <path d="M8 7 L16 7 L12 15 Z" fill="#FFFFFF"/>
        <text x="12" y="14" font-family="Arial" font-size="8" font-weight="700" text-anchor="middle" fill="#F5222D">!</text>
        <text x="32" y="16" font-family="PingFang SC" font-size="11" fill="#F5222D" font-weight="700">预警/拦截</text>
      </g>
    </g>
  </g>

  <!-- Legend -->
  <g id="legend" data-pptx-bounds="1060 700 200 20">
    <rect x="1060" y="700" width="200" height="18" rx="4" fill="#FFFFFF" stroke="#D4E4F8" stroke-width="1"/>
    <rect x="1065" y="704" width="10" height="10" rx="2" fill="#0753B8"/>
    <text x="1080" y="713" font-family="PingFang SC" font-size="9" fill="#5A6C82">业务数据与流程</text>
    <rect x="1155" y="704" width="10" height="10" rx="2" fill="#FF6B20"/>
    <text x="1170" y="713" font-family="PingFang SC" font-size="9" fill="#5A6C82">规则与风险判定</text>
  </g>
</svg>