<svg xmlns="http://www.w3.org/2000/svg" width="1280" height="720" viewBox="0 0 1280 720" data-pptx-page-role="content">
  <rect id="page-background" data-pptx-role="background" width="1280" height="720" fill="#F4F8FD"/>
  <g id="header" data-pptx-bounds="28 18 1224 90"><text x="34" y="57" font-family="PingFang SC" font-size="32" font-weight="700" fill="#083F91">13｜异常一致性形成辅助核查线索</text><text x="34" y="87" font-family="PingFang SC" font-size="17" fill="#5A6C82">精确重叠、主体关联和模糊相似共同呈现风险线索，最终结论由授权人员依法依规作出</text><line x1="34" y1="104" x2="1246" y2="104" stroke="#BCD3EC"/></g>
  <g id="documents" data-pptx-bounds="32 132 790 450"><rect x="32" y="132" width="790" height="450" rx="18" fill="#FFFFFF" stroke="#BCD3EC"/><text x="56" y="171" font-family="PingFang SC" font-size="20" font-weight="700" fill="#083F91">响应文件 / 报名材料对比证据</text><rect x="56" y="198" width="224" height="336" rx="14" fill="#EAF2FB" stroke="#9EB7D2" stroke-dasharray="8,6"/><rect x="296" y="198" width="224" height="336" rx="14" fill="#EAF2FB" stroke="#9EB7D2" stroke-dasharray="8,6"/><rect x="536" y="198" width="262" height="336" rx="14" fill="#EAF2FB" stroke="#9EB7D2" stroke-dasharray="8,6"/><text x="168" y="246" text-anchor="middle" font-family="PingFang SC" font-size="18" font-weight="700" fill="#52677F">待补充：文件 A</text><text x="408" y="246" text-anchor="middle" font-family="PingFang SC" font-size="18" font-weight="700" fill="#52677F">待补充：文件 B</text><text x="667" y="246" text-anchor="middle" font-family="PingFang SC" font-size="18" font-weight="700" fill="#52677F">待补充：文件 C / 主体关系</text><rect x="82" y="302" width="172" height="48" rx="8" fill="#FFE9E6"/><rect x="322" y="302" width="172" height="48" rx="8" fill="#FFE9E6"/><rect x="562" y="302" width="210" height="48" rx="8" fill="#FFE9E6"/><text x="168" y="332" text-anchor="middle" font-family="PingFang SC" font-size="14" font-weight="700" fill="#D94F4F">同色高亮相同 / 相似内容</text><text x="408" y="332" text-anchor="middle" font-family="PingFang SC" font-size="14" font-weight="700" fill="#D94F4F">同色高亮相同 / 相似内容</text><text x="667" y="332" text-anchor="middle" font-family="PingFang SC" font-size="14" font-weight="700" fill="#D94F4F">电话 / 邮箱 / 地址 / 人员关系</text><text x="168" y="398" text-anchor="middle" font-family="PingFang SC" font-size="14" fill="#6F7F94">文本结构、措辞、排版</text><text x="408" y="398" text-anchor="middle" font-family="PingFang SC" font-size="14" fill="#6F7F94">错误模式、附件特征</text><text x="667" y="398" text-anchor="middle" font-family="PingFang SC" font-size="14" fill="#6F7F94">共同股东 / 主要人员 / 精确重叠</text><text x="427" y="492" text-anchor="middle" font-family="PingFang SC" font-size="15" fill="#52677F">需保留原始文件、版本、主体信息、命中位置和人工核查记录</text></g>
  <g id="signals" data-pptx-bounds="846 132 402 450"><rect x="846" y="132" width="402" height="450" rx="18" fill="#FFFFFF" stroke="#BCD3EC"/><text x="870" y="171" font-family="PingFang SC" font-size="20" font-weight="700" fill="#083F91">综合风险线索</text><rect x="870" y="198" width="354" height="104" rx="14" fill="#FFF0E7"/><text x="892" y="231" font-family="PingFang SC" font-size="17" font-weight="700" fill="#FF6B20">确定性特征</text><text x="892" y="263" font-family="PingFang SC" font-size="15" fill="#52677F">工商关联、电话 / 邮箱 / 地址重叠</text><text x="892" y="286" font-family="PingFang SC" font-size="14" fill="#6F7F94">待补充真实规则命中结果</text><rect x="870" y="320" width="354" height="104" rx="14" fill="#F1EDFF"/><text x="892" y="353" font-family="PingFang SC" font-size="17" font-weight="700" fill="#7B61C9">AI 相似特征</text><text x="892" y="385" font-family="PingFang SC" font-size="15" fill="#52677F">文本结构、措辞、排版、异常错误模式</text><text x="892" y="408" font-family="PingFang SC" font-size="14" fill="#6F7F94">待补充相似性分析结果</text><rect x="870" y="442" width="354" height="112" rx="14" fill="#E8F3FF"/><text x="892" y="475" font-family="PingFang SC" font-size="17" font-weight="700" fill="#0753B8">综合线索与人工核查</text><text x="892" y="507" font-family="PingFang SC" font-size="15" fill="#52677F">规则与 AI 结果合并展示</text><text x="892" y="532" font-family="PingFang SC" font-size="14" fill="#6F7F94">待补充核查结论和处置记录</text></g>
  <g id="disclaimer" data-pptx-bounds="32 608 1216 76"><rect x="32" y="608" width="1216" height="68" rx="16" fill="#0753B8"/><text x="640" y="650" text-anchor="middle" font-family="PingFang SC" font-size="18" font-weight="700" fill="#FFFFFF">系统提供风险线索和辅助核查证据，不直接替代授权人员对违法违规行为的最终认定</text></g>
</svg>
