<svg xmlns="http://www.w3.org/2000/svg" width="1280" height="720" viewBox="0 0 1280 720" data-pptx-page-role="content">
  <rect id="page-background" data-pptx-role="background" width="1280" height="720" fill="#F4F8FD"/>
  <g id="header" data-pptx-bounds="28 18 1224 90"><text x="34" y="57" font-family="PingFang SC" font-size="32" font-weight="700" fill="#083F91">19｜打通交易、监管与信用数据</text><text x="34" y="87" font-family="PingFang SC" font-size="17" fill="#5A6C82">标准接口与事件协同使数字合规官嵌入交易流程，并向监管、信用、资质和审计体系输出风险与处置数据</text><line x1="34" y1="104" x2="1246" y2="104" stroke="#BCD3EC"/></g>
  <g id="left-platforms" data-pptx-bounds="32 142 280 390"><rect x="32" y="142" width="280" height="390" rx="18" fill="#FFFFFF" stroke="#BCD3EC"/><text x="172" y="180" text-anchor="middle" font-family="PingFang SC" font-size="20" font-weight="700" fill="#083F91">交易与业务系统</text><rect x="58" y="206" width="228" height="66" rx="14" fill="#E8F3FF"/><rect x="58" y="288" width="228" height="66" rx="14" fill="#E8F3FF"/><rect x="58" y="370" width="228" height="66" rx="14" fill="#E8F3FF"/><rect x="58" y="452" width="228" height="54" rx="14" fill="#E8F3FF"/><text x="172" y="246" text-anchor="middle" font-family="PingFang SC" font-size="16" font-weight="700" fill="#0753B8">采购项目・公告・响应文件</text><text x="172" y="328" text-anchor="middle" font-family="PingFang SC" font-size="16" font-weight="700" fill="#0753B8">评标结果・合同</text><text x="172" y="410" text-anchor="middle" font-family="PingFang SC" font-size="16" font-weight="700" fill="#0753B8">业务节点事件</text><text x="172" y="485" text-anchor="middle" font-family="PingFang SC" font-size="16" font-weight="700" fill="#0753B8">接收预警 / 拦截 / 核验结果</text></g>
  <g id="center" data-pptx-bounds="390 174 500 326"><circle cx="640" cy="336" r="156" fill="#0753B8"/><circle cx="640" cy="336" r="120" fill="#FFFFFF" fill-opacity="0.13" stroke="#9CCAFF" stroke-width="2"/><text x="640" y="318" text-anchor="middle" font-family="PingFang SC" font-size="28" font-weight="700" fill="#FFFFFF">数字合规官</text><text x="640" y="356" text-anchor="middle" font-family="PingFang SC" font-size="24" font-weight="700" fill="#FFFFFF">监管中台</text><text x="640" y="397" text-anchor="middle" font-family="PingFang SC" font-size="16" fill="#D8EBFF">风险识别・证据汇聚・分级处置・结果反馈</text><line x1="312" y1="275" x2="484" y2="306" stroke="#0753B8" stroke-width="5"/><line x1="484" y1="372" x2="312" y2="410" stroke="#42A96B" stroke-width="5"/><line x1="796" y1="286" x2="968" y2="245" stroke="#FF6B20" stroke-width="5"/><line x1="968" y1="430" x2="796" y2="388" stroke="#7B61C9" stroke-width="5"/></g>
  <g id="right-platforms" data-pptx-bounds="968 142 280 390"><rect x="968" y="142" width="280" height="390" rx="18" fill="#FFFFFF" stroke="#BCD3EC"/><text x="1108" y="180" text-anchor="middle" font-family="PingFang SC" font-size="20" font-weight="700" fill="#083F91">外部协同平台</text><rect x="994" y="206" width="228" height="58" rx="14" fill="#FFF0E7"/><rect x="994" y="280" width="228" height="58" rx="14" fill="#E8F7EF"/><rect x="994" y="354" width="228" height="58" rx="14" fill="#F1EDFF"/><rect x="994" y="428" width="228" height="58" rx="14" fill="#E8F3FF"/><text x="1108" y="242" text-anchor="middle" font-family="PingFang SC" font-size="16" font-weight="700" fill="#FF6B20">监管平台｜线索与处置状态</text><text x="1108" y="316" text-anchor="middle" font-family="PingFang SC" font-size="16" font-weight="700" fill="#268A50">信用平台｜信用处罚失信信息</text><text x="1108" y="390" text-anchor="middle" font-family="PingFang SC" font-size="16" font-weight="700" fill="#7B61C9">资质平台｜主体证书有效状态</text><text x="1108" y="464" text-anchor="middle" font-family="PingFang SC" font-size="16" font-weight="700" fill="#0753B8">审计平台｜日志证据与处置记录</text></g>
  <g id="legend" data-pptx-bounds="390 510 520 48"><rect x="390" y="510" width="520" height="44" rx="22" fill="#FFFFFF" stroke="#BCD3EC"/><circle cx="430" cy="532" r="8" fill="#0753B8"/><text x="448" y="538" font-family="PingFang SC" font-size="14" fill="#52677F">数据输入</text><circle cx="570" cy="532" r="8" fill="#FF6B20"/><text x="588" y="538" font-family="PingFang SC" font-size="14" fill="#52677F">风险输出</text><circle cx="710" cy="532" r="8" fill="#42A96B"/><text x="728" y="538" font-family="PingFang SC" font-size="14" fill="#52677F">处置反馈</text><circle cx="820" cy="532" r="8" fill="#7B61C9"/><text x="838" y="538" font-family="PingFang SC" font-size="14" fill="#52677F">审计交换</text></g>
  <g id="governance" data-pptx-bounds="32 580 1216 108"><rect x="32" y="580" width="1216" height="98" rx="18" fill="#FFFFFF" stroke="#BCD3EC"/><text x="58" y="617" font-family="PingFang SC" font-size="18" font-weight="700" fill="#083F91">接口治理底座</text><text x="230" y="617" font-family="PingFang SC" font-size="16" fill="#52677F">身份认证｜权限控制｜数据脱敏｜调用日志｜失败重试｜版本管理</text><text x="58" y="651" font-family="PingFang SC" font-size="13" fill="#6F7F94">实际对接的平台名称、接口数量、交换数据、调用规模和运行截图待补充；需区分已上线、试点和规划对接</text></g>
</svg>
